<svg width="16" height="16" viewBox="0 0 16 16" fill="none" xmlns="http://www.w3.org/2000/svg">
<path d="M12 7.16683C11.7267 7.16683 11.5 6.94016 11.5 6.66683V5.3335C11.5 3.2335 10.9067 1.8335 8 1.8335C5.09333 1.8335 4.5 3.2335 4.5 5.3335V6.66683C4.5 6.94016 4.27333 7.16683 4 7.16683C3.72667 7.16683 3.5 6.94016 3.5 6.66683V5.3335C3.5 3.40016 3.96667 0.833496 8 0.833496C12.0333 0.833496 12.5 3.40016 12.5 5.3335V6.66683C12.5 6.94016 12.2733 7.16683 12 7.16683Z" fill="#8E8E8E"/>
<path d="M7.9987 12.8333C6.80536 12.8333 5.83203 11.86 5.83203 10.6667C5.83203 9.47333 6.80536 8.5 7.9987 8.5C9.19203 8.5 10.1654 9.47333 10.1654 10.6667C10.1654 11.86 9.19203 12.8333 7.9987 12.8333ZM7.9987 9.5C7.3587 9.5 6.83203 10.0267 6.83203 10.6667C6.83203 11.3067 7.3587 11.8333 7.9987 11.8333C8.6387 11.8333 9.16536 11.3067 9.16536 10.6667C9.16536 10.0267 8.6387 9.5 7.9987 9.5Z" fill="#8E8E8E"/>
<path d="M11.332 15.1665H4.66536C1.72536 15.1665 0.832031 14.2732 0.832031 11.3332V9.99984C0.832031 7.05984 1.72536 6.1665 4.66536 6.1665H11.332C14.272 6.1665 15.1654 7.05984 15.1654 9.99984V11.3332C15.1654 14.2732 14.272 15.1665 11.332 15.1665ZM4.66536 7.1665C2.2787 7.1665 1.83203 7.61984 1.83203 9.99984V11.3332C1.83203 13.7132 2.2787 14.1665 4.66536 14.1665H11.332C13.7187 14.1665 14.1654 13.7132 14.1654 11.3332V9.99984C14.1654 7.61984 13.7187 7.1665 11.332 7.1665H4.66536Z" fill="#8E8E8E"/>
</svg>
